<svg width="217" height="508" viewBox="0 0 217 508" fill="none" xmlns="http://www.w3.org/2000/svg">
<path opacity="0.05" d="M35 271C165.891 271 272 377.109 272 508H35V271Z" fill="#FDBA09"/>
<g opacity="0.3">
<circle cx="1.44303" cy="410.949" r="1.44303" fill="#7562E0"/>
<circle cx="10.1012" cy="410.949" r="1.44303" fill="#7562E0"/>
<circle cx="18.7594" cy="410.949" r="1.44303" fill="#7562E0"/>
<circle cx="27.4176" cy="410.949" r="1.44303" fill="#7562E0"/>
<circle cx="36.0758" cy="410.949" r="1.44303" fill="#7562E0"/>
<circle cx="44.7341" cy="410.949" r="1.44303" fill="#7562E0"/>
<circle cx="53.3923" cy="410.949" r="1.44303" fill="#7562E0"/>
<circle cx="62.0505" cy="410.949" r="1.44303" fill="#7562E0"/>
<circle cx="70.7087" cy="410.949" r="1.44303" fill="#7562E0"/>
<circle cx="79.3669" cy="410.949" r="1.44303" fill="#7562E0"/>
<circle cx="88.0251" cy="410.949" r="1.44303" fill="#7562E0"/>
<circle cx="96.6833" cy="410.949" r="1.44303" fill="#7562E0"/>
<circle cx="1.44303" cy="419.608" r="1.44303" fill="#7562E0"/>
<circle cx="10.1012" cy="419.607" r="1.44303" fill="#7562E0"/>
<circle cx="18.7594" cy="419.607" r="1.44303" fill="#7562E0"/>
<circle cx="27.4176" cy="419.607" r="1.44303" fill="#7562E0"/>
<circle cx="36.0758" cy="419.607" r="1.44303" fill="#7562E0"/>
<circle cx="44.7341" cy="419.607" r="1.44303" fill="#7562E0"/>
<circle cx="53.3923" cy="419.607" r="1.44303" fill="#7562E0"/>
<circle cx="62.0505" cy="419.607" r="1.44303" fill="#7562E0"/>
<circle cx="70.7087" cy="419.607" r="1.44303" fill="#7562E0"/>
<circle cx="79.3669" cy="419.607" r="1.44303" fill="#7562E0"/>
<circle cx="88.0251" cy="419.607" r="1.44303" fill="#7562E0"/>
<circle cx="96.6833" cy="419.607" r="1.44303" fill="#7562E0"/>
<circle cx="1.44303" cy="428.266" r="1.44303" fill="#7562E0"/>
<circle cx="10.1012" cy="428.266" r="1.44303" fill="#7562E0"/>
<circle cx="18.7594" cy="428.266" r="1.44303" fill="#7562E0"/>
<circle cx="27.4176" cy="428.266" r="1.44303" fill="#7562E0"/>
<circle cx="36.0758" cy="428.266" r="1.44303" fill="#7562E0"/>
<circle cx="44.7341" cy="428.266" r="1.44303" fill="#7562E0"/>
<circle cx="53.3923" cy="428.266" r="1.44303" fill="#7562E0"/>
<circle cx="62.0505" cy="428.266" r="1.44303" fill="#7562E0"/>
<circle cx="70.7087" cy="428.266" r="1.44303" fill="#7562E0"/>
<circle cx="79.3669" cy="428.266" r="1.44303" fill="#7562E0"/>
<circle cx="88.0251" cy="428.266" r="1.44303" fill="#7562E0"/>
<circle cx="96.6833" cy="428.266" r="1.44303" fill="#7562E0"/>
<circle cx="1.44303" cy="436.924" r="1.44303" fill="#7562E0"/>
<circle cx="10.1012" cy="436.923" r="1.44303" fill="#7562E0"/>
<circle cx="18.7594" cy="436.923" r="1.44303" fill="#7562E0"/>
<circle cx="27.4176" cy="436.923" r="1.44303" fill="#7562E0"/>
<circle cx="36.0758" cy="436.923" r="1.44303" fill="#7562E0"/>
<circle cx="44.7341" cy="436.923" r="1.44303" fill="#7562E0"/>
<circle cx="53.3923" cy="436.923" r="1.44303" fill="#7562E0"/>
<circle cx="62.0505" cy="436.923" r="1.44303" fill="#7562E0"/>
<circle cx="70.7087" cy="436.923" r="1.44303" fill="#7562E0"/>
<circle cx="79.3669" cy="436.923" r="1.44303" fill="#7562E0"/>
<circle cx="88.0251" cy="436.923" r="1.44303" fill="#7562E0"/>
<circle cx="96.6833" cy="436.923" r="1.44303" fill="#7562E0"/>
<circle cx="1.44303" cy="445.582" r="1.44303" fill="#7562E0"/>
<circle cx="10.1012" cy="445.582" r="1.44303" fill="#7562E0"/>
<circle cx="18.7594" cy="445.582" r="1.44303" fill="#7562E0"/>
<circle cx="27.4176" cy="445.582" r="1.44303" fill="#7562E0"/>
<circle cx="36.0758" cy="445.582" r="1.44303" fill="#7562E0"/>
<circle cx="44.7341" cy="445.582" r="1.44303" fill="#7562E0"/>
<circle cx="53.3923" cy="445.582" r="1.44303" fill="#7562E0"/>
<circle cx="62.0505" cy="445.582" r="1.44303" fill="#7562E0"/>
<circle cx="70.7087" cy="445.582" r="1.44303" fill="#7562E0"/>
<circle cx="79.3669" cy="445.582" r="1.44303" fill="#7562E0"/>
<circle cx="88.0251" cy="445.582" r="1.44303" fill="#7562E0"/>
<circle cx="96.6833" cy="445.582" r="1.44303" fill="#7562E0"/>
<circle cx="1.44303" cy="454.24" r="1.44303" fill="#7562E0"/>
<circle cx="10.1012" cy="454.24" r="1.44303" fill="#7562E0"/>
<circle cx="18.7594" cy="454.24" r="1.44303" fill="#7562E0"/>
<circle cx="27.4176" cy="454.24" r="1.44303" fill="#7562E0"/>
<circle cx="36.0758" cy="454.24" r="1.44303" fill="#7562E0"/>
<circle cx="44.7341" cy="454.24" r="1.44303" fill="#7562E0"/>
<circle cx="53.3923" cy="454.24" r="1.44303" fill="#7562E0"/>
<circle cx="62.0505" cy="454.24" r="1.44303" fill="#7562E0"/>
<circle cx="70.7087" cy="454.24" r="1.44303" fill="#7562E0"/>
<circle cx="79.3669" cy="454.24" r="1.44303" fill="#7562E0"/>
<circle cx="88.0251" cy="454.24" r="1.44303" fill="#7562E0"/>
<circle cx="96.6833" cy="454.24" r="1.44303" fill="#7562E0"/>
<circle cx="1.44303" cy="462.899" r="1.44303" fill="#7562E0"/>
<circle cx="10.1012" cy="462.898" r="1.44303" fill="#7562E0"/>
<circle cx="18.7594" cy="462.898" r="1.44303" fill="#7562E0"/>
<circle cx="27.4176" cy="462.898" r="1.44303" fill="#7562E0"/>
<circle cx="36.0758" cy="462.898" r="1.44303" fill="#7562E0"/>
<circle cx="44.7341" cy="462.898" r="1.44303" fill="#7562E0"/>
<circle cx="53.3923" cy="462.898" r="1.44303" fill="#7562E0"/>
<circle cx="62.0505" cy="462.898" r="1.44303" fill="#7562E0"/>
<circle cx="70.7087" cy="462.898" r="1.44303" fill="#7562E0"/>
<circle cx="79.3669" cy="462.898" r="1.44303" fill="#7562E0"/>
<circle cx="88.0251" cy="462.898" r="1.44303" fill="#7562E0"/>
<circle cx="96.6833" cy="462.898" r="1.44303" fill="#7562E0"/>
<circle cx="1.44303" cy="471.557" r="1.44303" fill="#7562E0"/>
<circle cx="10.1012" cy="471.557" r="1.44303" fill="#7562E0"/>
<circle cx="18.7594" cy="471.557" r="1.44303" fill="#7562E0"/>
<circle cx="27.4176" cy="471.557" r="1.44303" fill="#7562E0"/>
<circle cx="36.0758" cy="471.557" r="1.44303" fill="#7562E0"/>
<circle cx="44.7341" cy="471.557" r="1.44303" fill="#7562E0"/>
<circle cx="53.3923" cy="471.557" r="1.44303" fill="#7562E0"/>
<circle cx="62.0505" cy="471.557" r="1.44303" fill="#7562E0"/>
<circle cx="70.7087" cy="471.557" r="1.44303" fill="#7562E0"/>
<circle cx="79.3669" cy="471.557" r="1.44303" fill="#7562E0"/>
<circle cx="88.0251" cy="471.557" r="1.44303" fill="#7562E0"/>
<circle cx="96.6833" cy="471.557" r="1.44303" fill="#7562E0"/>
</g>
<path d="M160.968 91C154.996 72.1643 151.283 35.941 184.205 41.7329C225.357 48.9729 215.519 67.0452 210.812 72.4587C207.396 76.3879 199.635 77.4603 195.735 59.9212C191.829 42.3585 190.768 -9.4765 236 2.88441" stroke="#FCA61F" stroke-opacity="0.4" stroke-width="1.5"/>
</svg>
