<svg width="99" height="64" viewBox="0 0 99 64" fill="none" xmlns="http://www.w3.org/2000/svg">
<g opacity="0.3">
<circle cx="1.44303" cy="1.94914" r="1.44303" fill="#7562E0"/>
<circle cx="10.1012" cy="1.94889" r="1.44303" fill="#7562E0"/>
<circle cx="18.7594" cy="1.94889" r="1.44303" fill="#7562E0"/>
<circle cx="27.4176" cy="1.94889" r="1.44303" fill="#7562E0"/>
<circle cx="36.0758" cy="1.94889" r="1.44303" fill="#7562E0"/>
<circle cx="44.7341" cy="1.94889" r="1.44303" fill="#7562E0"/>
<circle cx="53.3923" cy="1.94889" r="1.44303" fill="#7562E0"/>
<circle cx="62.0505" cy="1.94889" r="1.44303" fill="#7562E0"/>
<circle cx="70.7087" cy="1.94889" r="1.44303" fill="#7562E0"/>
<circle cx="79.3669" cy="1.94889" r="1.44303" fill="#7562E0"/>
<circle cx="88.0251" cy="1.94889" r="1.44303" fill="#7562E0"/>
<circle cx="96.6833" cy="1.94889" r="1.44303" fill="#7562E0"/>
<circle cx="1.44303" cy="10.6078" r="1.44303" fill="#7562E0"/>
<circle cx="10.1012" cy="10.6073" r="1.44303" fill="#7562E0"/>
<circle cx="18.7594" cy="10.6073" r="1.44303" fill="#7562E0"/>
<circle cx="27.4176" cy="10.6073" r="1.44303" fill="#7562E0"/>
<circle cx="36.0758" cy="10.6073" r="1.44303" fill="#7562E0"/>
<circle cx="44.7341" cy="10.6073" r="1.44303" fill="#7562E0"/>
<circle cx="53.3923" cy="10.6073" r="1.44303" fill="#7562E0"/>
<circle cx="62.0505" cy="10.6073" r="1.44303" fill="#7562E0"/>
<circle cx="70.7087" cy="10.6073" r="1.44303" fill="#7562E0"/>
<circle cx="79.3669" cy="10.6073" r="1.44303" fill="#7562E0"/>
<circle cx="88.0251" cy="10.6073" r="1.44303" fill="#7562E0"/>
<circle cx="96.6833" cy="10.6073" r="1.44303" fill="#7562E0"/>
<circle cx="1.44303" cy="19.2655" r="1.44303" fill="#7562E0"/>
<circle cx="10.1012" cy="19.2655" r="1.44303" fill="#7562E0"/>
<circle cx="18.7594" cy="19.2655" r="1.44303" fill="#7562E0"/>
<circle cx="27.4176" cy="19.2655" r="1.44303" fill="#7562E0"/>
<circle cx="36.0758" cy="19.2655" r="1.44303" fill="#7562E0"/>
<circle cx="44.7341" cy="19.2655" r="1.44303" fill="#7562E0"/>
<circle cx="53.3923" cy="19.2655" r="1.44303" fill="#7562E0"/>
<circle cx="62.0505" cy="19.2655" r="1.44303" fill="#7562E0"/>
<circle cx="70.7087" cy="19.2655" r="1.44303" fill="#7562E0"/>
<circle cx="79.3669" cy="19.2655" r="1.44303" fill="#7562E0"/>
<circle cx="88.0251" cy="19.2655" r="1.44303" fill="#7562E0"/>
<circle cx="96.6833" cy="19.2655" r="1.44303" fill="#7562E0"/>
<circle cx="1.44303" cy="27.9237" r="1.44303" fill="#7562E0"/>
<circle cx="10.1012" cy="27.9235" r="1.44303" fill="#7562E0"/>
<circle cx="18.7594" cy="27.9235" r="1.44303" fill="#7562E0"/>
<circle cx="27.4176" cy="27.9235" r="1.44303" fill="#7562E0"/>
<circle cx="36.0758" cy="27.9235" r="1.44303" fill="#7562E0"/>
<circle cx="44.7341" cy="27.9235" r="1.44303" fill="#7562E0"/>
<circle cx="53.3923" cy="27.9235" r="1.44303" fill="#7562E0"/>
<circle cx="62.0505" cy="27.9235" r="1.44303" fill="#7562E0"/>
<circle cx="70.7087" cy="27.9235" r="1.44303" fill="#7562E0"/>
<circle cx="79.3669" cy="27.9235" r="1.44303" fill="#7562E0"/>
<circle cx="88.0251" cy="27.9235" r="1.44303" fill="#7562E0"/>
<circle cx="96.6833" cy="27.9235" r="1.44303" fill="#7562E0"/>
<circle cx="1.44303" cy="36.5817" r="1.44303" fill="#7562E0"/>
<circle cx="10.1012" cy="36.5817" r="1.44303" fill="#7562E0"/>
<circle cx="18.7594" cy="36.5817" r="1.44303" fill="#7562E0"/>
<circle cx="27.4176" cy="36.5817" r="1.44303" fill="#7562E0"/>
<circle cx="36.0758" cy="36.5817" r="1.44303" fill="#7562E0"/>
<circle cx="44.7341" cy="36.5817" r="1.44303" fill="#7562E0"/>
<circle cx="53.3923" cy="36.5817" r="1.44303" fill="#7562E0"/>
<circle cx="62.0505" cy="36.5817" r="1.44303" fill="#7562E0"/>
<circle cx="70.7087" cy="36.5817" r="1.44303" fill="#7562E0"/>
<circle cx="79.3669" cy="36.5817" r="1.44303" fill="#7562E0"/>
<circle cx="88.0251" cy="36.5817" r="1.44303" fill="#7562E0"/>
<circle cx="96.6833" cy="36.5817" r="1.44303" fill="#7562E0"/>
<circle cx="1.44303" cy="45.2402" r="1.44303" fill="#7562E0"/>
<circle cx="10.1012" cy="45.2402" r="1.44303" fill="#7562E0"/>
<circle cx="18.7594" cy="45.2402" r="1.44303" fill="#7562E0"/>
<circle cx="27.4176" cy="45.2402" r="1.44303" fill="#7562E0"/>
<circle cx="36.0758" cy="45.2402" r="1.44303" fill="#7562E0"/>
<circle cx="44.7341" cy="45.2402" r="1.44303" fill="#7562E0"/>
<circle cx="53.3923" cy="45.2402" r="1.44303" fill="#7562E0"/>
<circle cx="62.0505" cy="45.2402" r="1.44303" fill="#7562E0"/>
<circle cx="70.7087" cy="45.2402" r="1.44303" fill="#7562E0"/>
<circle cx="79.3669" cy="45.2402" r="1.44303" fill="#7562E0"/>
<circle cx="88.0251" cy="45.2402" r="1.44303" fill="#7562E0"/>
<circle cx="96.6833" cy="45.2402" r="1.44303" fill="#7562E0"/>
<circle cx="1.44303" cy="53.8986" r="1.44303" fill="#7562E0"/>
<circle cx="10.1012" cy="53.8984" r="1.44303" fill="#7562E0"/>
<circle cx="18.7594" cy="53.8984" r="1.44303" fill="#7562E0"/>
<circle cx="27.4176" cy="53.8984" r="1.44303" fill="#7562E0"/>
<circle cx="36.0758" cy="53.8984" r="1.44303" fill="#7562E0"/>
<circle cx="44.7341" cy="53.8984" r="1.44303" fill="#7562E0"/>
<circle cx="53.3923" cy="53.8984" r="1.44303" fill="#7562E0"/>
<circle cx="62.0505" cy="53.8984" r="1.44303" fill="#7562E0"/>
<circle cx="70.7087" cy="53.8984" r="1.44303" fill="#7562E0"/>
<circle cx="79.3669" cy="53.8984" r="1.44303" fill="#7562E0"/>
<circle cx="88.0251" cy="53.8984" r="1.44303" fill="#7562E0"/>
<circle cx="96.6833" cy="53.8984" r="1.44303" fill="#7562E0"/>
<circle cx="1.44303" cy="62.5568" r="1.44303" fill="#7562E0"/>
<circle cx="10.1012" cy="62.5566" r="1.44303" fill="#7562E0"/>
<circle cx="18.7594" cy="62.5566" r="1.44303" fill="#7562E0"/>
<circle cx="27.4176" cy="62.5566" r="1.44303" fill="#7562E0"/>
<circle cx="36.0758" cy="62.5566" r="1.44303" fill="#7562E0"/>
<circle cx="44.7341" cy="62.5566" r="1.44303" fill="#7562E0"/>
<circle cx="53.3923" cy="62.5566" r="1.44303" fill="#7562E0"/>
<circle cx="62.0505" cy="62.5566" r="1.44303" fill="#7562E0"/>
<circle cx="70.7087" cy="62.5566" r="1.44303" fill="#7562E0"/>
<circle cx="79.3669" cy="62.5566" r="1.44303" fill="#7562E0"/>
<circle cx="88.0251" cy="62.5566" r="1.44303" fill="#7562E0"/>
<circle cx="96.6833" cy="62.5566" r="1.44303" fill="#7562E0"/>
</g>
</svg>
